<svg width="32" height="20" viewBox="0 0 32 20" fill="none" xmlns="http://www.w3.org/2000/svg">
<path d="M22.8702 12.2172H21.4248L20.9125 11.9173C22.7675 10.6112 23.787 8.94375 23.785 7.21924C23.785 5.79141 23.0875 4.39565 21.7808 3.20845C20.474 2.02125 18.6166 1.09594 16.4436 0.549535C14.2705 0.00312801 11.8793 -0.139837 9.5724 0.138719C7.26548 0.417275 5.14644 1.10484 3.48324 2.11447C1.82004 3.1241 0.687392 4.41044 0.228517 5.81084C-0.230358 7.21124 0.00515288 8.66278 0.905269 9.98193C1.80538 11.3011 3.32968 12.4286 5.28539 13.2218C7.2411 14.0151 9.5404 14.4385 11.8925 14.4385C14.8382 14.4385 17.546 13.7832 19.6318 12.6948L20.1258 13.0057V13.8832L29.2739 19.4253L32 17.7704L22.8702 12.2172ZM11.8925 12.2172C7.33677 12.2172 3.65924 9.98477 3.65924 7.21924C3.65924 4.45372 7.33677 2.22131 11.8925 2.22131C16.4483 2.22131 20.1258 4.45372 20.1258 7.21924C20.1258 9.98477 16.4483 12.2172 11.8925 12.2172Z" fill="black"/>
</svg>
