<svg width="24" height="24" viewBox="0 0 24 24" fill="none" xmlns="http://www.w3.org/2000/svg">
<path d="M12 22.75C17.9371 22.75 22.75 17.9371 22.75 12C22.75 6.06294 17.9371 1.25 12 1.25C6.06294 1.25 1.25 6.06294 1.25 12C1.25 17.9371 6.06294 22.75 12 22.75Z" stroke="black" stroke-width="0.5" stroke-linecap="round" stroke-linejoin="round"/>
<path d="M12 9.5C12.663 9.5 13.2989 9.76339 13.7678 10.2322C14.2366 10.7011 14.5 11.337 14.5 12C14.5 12.663 14.2366 13.2989 13.7678 13.7678C13.2989 14.2366 12.663 14.5 12 14.5" stroke="black" stroke-width="0.5" stroke-linecap="round" stroke-linejoin="round"/>
<path d="M12 6.85999C13.3632 6.85999 14.6706 7.40152 15.6345 8.36546C16.5985 9.32939 17.14 10.6368 17.14 12C17.14 13.3632 16.5985 14.6706 15.6345 15.6345C14.6706 16.5985 13.3632 17.14 12 17.14" stroke="black" stroke-width="0.5" stroke-linecap="round" stroke-linejoin="round"/>
<path d="M12 3.93994C14.1376 3.93994 16.1877 4.78912 17.6993 6.30066C19.2108 7.8122 20.06 9.8623 20.06 11.9999C20.06 14.1376 19.2108 16.1877 17.6993 17.6992C16.1877 19.2108 14.1376 20.0599 12 20.0599" stroke="black" stroke-width="0.5" stroke-linecap="round" stroke-linejoin="round"/>
</svg>
