<svg width="24" height="24" viewBox="0 0 24 24" fill="none" xmlns="http://www.w3.org/2000/svg">
<g clip-path="url(#clip0_557_1312)">
<path d="M16.043 14H7.957C6.64281 14.0016 5.3829 14.5244 4.45363 15.4536C3.52435 16.3829 3.00159 17.6428 3 18.957V24H21V18.957C20.9984 17.6428 20.4756 16.3829 19.5464 15.4536C18.6171 14.5244 17.3572 14.0016 16.043 14Z" fill="#C5D3E3"/>
<path d="M12 12C15.3137 12 18 9.3137 18 5.99999C18 2.68628 15.3137 -7.62939e-06 12 -7.62939e-06C8.68629 -7.62939e-06 6 2.68628 6 5.99999C6 9.3137 8.68629 12 12 12Z" fill="#C5D3E3"/>
</g>
<defs>
<clipPath id="clip0_557_1312">
<rect width="24" height="24" fill="white"/>
</clipPath>
</defs>
</svg>
